<svg version="1.2" xmlns="http://www.w3.org/2000/svg" viewBox="0 0 351 288" width="351" height="288">
	<title>svgviewer-output (4)</title>
	<defs>
		<linearGradient id="g1" x2="1" gradientUnits="userSpaceOnUse" gradientTransform="matrix(340,0,0,288,6,0)">
			<stop offset="0" stop-color="#905e26"/>
			<stop offset=".5" stop-color="#f5ec9b"/>
			<stop offset="1" stop-color="#905e26"/>
		</linearGradient>
		<linearGradient id="g2" x2="1" gradientUnits="userSpaceOnUse" gradientTransform="matrix(350,0,0,43.162,1,90)">
			<stop offset="0" stop-color="#905e26"/>
			<stop offset=".5" stop-color="#f5ec9b"/>
			<stop offset="1" stop-color="#905e26"/>
		</linearGradient>
		<linearGradient id="g3" x2="1" gradientUnits="userSpaceOnUse" gradientTransform="matrix(350,0,0,54.789,1,143)">
			<stop offset="0" stop-color="#905e26"/>
			<stop offset=".5" stop-color="#f5ec9b"/>
			<stop offset="1" stop-color="#905e26"/>
		</linearGradient>
	</defs>
	<style>
		.s0 { fill: url(#g1) } 
		.s1 { fill: url(#g2) } 
		.s2 { fill: url(#g3) } 
	</style>
	<g id="SvgjsG5922">
		<path fill-rule="evenodd" class="s0" d="m176 10l170 55-170-65-170 65zm-170 198l170 80 170-85-170 75z"/>
	</g>
	<g id="SvgjsG5923">
		<path class="s1" d="m43.6 132.4l-0.4-0.3c-3.3-2-7.2-2.1-10.8-0.7-2.7 1.1-5.7 1.8-8.8 1.8-12.5 0-22.6-9.4-22.6-21.6 0-12.3 10.1-21.6 22.6-21.6h2.3c7.7 0 14.6 4.6 17.7 11.6h-8.8c-4.3-6.5-11-10.3-17.1-8.9-8 1.9-10.9 11.4-7.6 22.2 3.3 10.8 11.4 17.5 19.4 15.6 3.1-0.7 5.7-2.8 7.3-5.6v-8.7h-6v-3h12.8zm10-20.8c0-12.2 10.1-21.5 22.5-21.5 12.6 0 22.6 9.3 22.6 21.5 0 12.3-10 21.6-22.6 21.6-12.4 0-22.5-9.3-22.5-21.6zm9 3.3c3.3 10.8 11.5 17.5 19.4 15.7 8-1.8 11.8-11.5 8.6-22.3-3.2-10.8-12.4-17.2-20.3-15.4-8 1.9-11 11.3-7.7 22zm68.2 17.5v-1.6l2.7-2.8c0.3-0.4 0.4-0.7 0.7-1.2l14.1-36h6.4l14.1 35.9c0.3 0.6 0.6 0.9 1.1 1.3l3.3 2.8v1.6h-12.7v-1.6l0.3-0.1c1.5-1 2-2.8 1.4-4.4l-2.8-7h-19.5l-3 7.5c-0.5 1.4-0.1 3 1 4v1.6zm10.1-15.5h17.7l-8.9-22.6zm39.7 15.6v-1.7c2.1-2.2 3.1-4.9 3.1-7.7v-22.8c0-2.9-1-5.7-3-7.8v-1.7h12.7v1.7c-2 2.1-3.2 4.9-3.2 7.8v10.6h18.3v-10.6c0-2.9-1.2-5.7-3.2-7.8v-1.7h12.7v1.7c-2 2.1-3 4.9-3 7.8v22.8c0 2.8 1 5.5 3 7.7v1.7h-12.7v-1.7c2-2.2 3.2-4.9 3.2-7.7v-9.5h-18.3v9.5c0 2.8 1.2 5.5 3.1 7.7v1.7zm46.7 0v-1.7c2-2.1 3-4.9 3-7.8v-22.7c0-2.9-1-5.7-3-7.8v-1.7h29.4l0.4 7.7h-2.8c-4.1-3.2-8.9-4.9-13.9-4.9h-3.6v17.3h8.9v2.7h-8.9v16.1h3.5c4.8 0 9.5-1.6 13.5-4.5l0.5-0.4h2.8l-0.4 7.5v0.2zm37 0v-1.7l2.7-2.8c0.3-0.4 0.5-0.7 0.7-1.2l14.1-36h6.4l14.2 35.9c0.2 0.6 0.6 0.9 1 1.4l3.3 2.7v1.7h-12.6v-1.7l0.2-0.1c1.5-1 2.1-2.8 1.4-4.4l-2.7-7h-19.6l-3 7.5c-0.5 1.4-0.1 3 1.1 4v1.7zm10-15.6h17.7l-8.8-22.6zm39.7 15.6v-1.6c2-2.2 3-5 3-7.9v-22.7c0-2.9-1-5.7-3-7.8v-1.7h15.5c11.8 0 21.4 9.4 21.4 20.9 0 11.4-9.6 20.8-21.4 20.8zm9.5-1.8h5.9c7.9 0 14.3-8.6 14.3-19 0-10.6-6.4-19-14.3-19h-5.9z"/>
	</g>
	<g id="SvgjsG5924">
		<path class="s2" d="m1 196.8v-2c2.5-2.7 3.8-6.3 3.8-10v-28.8c0-3.6-1.3-7.3-3.8-9.9v-2.1h37.4l0.4 9.7h-3.5c-5.2-4.1-11.4-6.2-17.7-6.2h-4.5v21.9h11.3v3.5h-11.3v20.4h4.4c6.1 0 12-2.1 17.1-5.7l0.7-0.5h3.5l-0.4 9.6v0.1zm49.6 0v-2l1.2-1.3c1.4-1.4 2.2-3.1 2.2-5.1v-35.2c0-1.8-0.6-3.6-1.8-4.8l-2.1-2.2v-2.2h12l30.7 47.8v-40.4c0-2-0.7-3.8-2.3-5.2v-2.2h9v2.2l-1.2 1.2c-1.4 1.3-2.2 3.1-2.2 5v44.4h-8.2l-29.8-46.4h-0.8v39.1c0 1.9 0.9 3.8 2.3 5.3v2zm114.6 0l-0.5-0.4c-4.3-2.5-9.2-2.6-13.8-0.8-3.4 1.4-7.2 2.2-11.1 2.2-15.9 0-28.7-11.9-28.7-27.4 0-15.6 12.8-27.4 28.7-27.4h2.8c9.8 0 18.6 5.8 22.5 14.7h-11.1c-5.5-8.3-14-13-21.7-11.2-10.2 2.4-13.8 14.5-9.7 28 4.2 13.8 14.5 22.4 24.6 20 4-1 7.3-3.7 9.4-7.2v-11h-7.6v-3.8h16.2zm12.8 0v-2c2.5-2.7 3.8-6.3 3.8-9.9v-28.9c0-3.6-1.3-7.3-3.8-9.9v-2.1h16v2.1c-2.5 2.6-3.8 6.3-3.8 9.9v37.3h11.8c4 0 7.9-1.2 11.1-3.5h2.4v7zm47.2 0v-2c2.4-2.8 3.9-6.4 3.9-9.9v-28.9c0-3.6-1.5-7.3-3.9-9.9v-2.1h16v2.1c-2.5 2.6-4 6.3-4 9.9v28.9c0 3.5 1.5 7.1 4 9.9v2zm27.8-4.7v-6.9h4.1l3.6 4c3.1 3.5 7.3 4.2 12.3 4.3 5.9 0 11.5-2 11.5-7 0-6.1-10.6-12-16.6-15.4-5.2-3-14-7.1-14-13.4 0-11.6 14.7-13.7 18.8-13.7 5 0 10.1 1.1 15.6 3.4l0.1 6.8h-4.3l-2.5-3c-2.4-2.8-6.1-4.5-9.7-4.5-6.4 0-10 4.5-10 7.1 0 5.3 10.9 9.2 21.5 16.1 5.9 4 8.7 8.6 8.7 13 0 7.4-7.5 14.1-18.9 14.1-13.8 0-20.2-4.9-20.2-4.9zm50.5 4.7v-2c2.6-2.8 4-6.4 4-9.8v-29c0-3.6-1.4-7.3-3.9-9.9v-2.1h16.1v2.1c-2.6 2.6-4.1 6.3-4.1 9.9v13.4h23.3v-13.4c0-3.6-1.5-7.3-4-9.9v-2.1h16v2.1c-2.4 2.6-3.8 6.3-3.8 9.9v29c0 3.4 1.4 7 3.8 9.8v2h-16v-2c2.5-2.8 4-6.4 4-9.8v-12.1h-23.3v12.1c0 3.4 1.5 7 3.9 9.8v2z"/>
	</g>
</svg>