<svg version="1.2" xmlns="http://www.w3.org/2000/svg" viewBox="0 0 371 79" width="371" height="79">
	<title>1rr41en8wzpm9p7qgen</title>
	<defs>
		<linearGradient id="g1" x2="1" gradientUnits="userSpaceOnUse" gradientTransform="matrix(83.332,0,0,74.084,287.001,2.001)">
			<stop offset="0" stop-color="#905e26"/>
			<stop offset=".5" stop-color="#f5ec9b"/>
			<stop offset="1" stop-color="#905e26"/>
		</linearGradient>
		<linearGradient id="g2" x2="1" gradientUnits="userSpaceOnUse" gradientTransform="matrix(266.667,0,0,31.731,0,0)">
			<stop offset="0" stop-color="#905e26"/>
			<stop offset=".5" stop-color="#f5ec9b"/>
			<stop offset="1" stop-color="#905e26"/>
		</linearGradient>
		<linearGradient id="g3" x2="1" gradientUnits="userSpaceOnUse" gradientTransform="matrix(266.667,0,0,36.575,0,42)">
			<stop offset="0" stop-color="#905e26"/>
			<stop offset=".5" stop-color="#f5ec9b"/>
			<stop offset="1" stop-color="#905e26"/>
		</linearGradient>
	</defs>
	<style>
		.s0 { fill: url(#g1) } 
		.s1 { fill: url(#g2) } 
		.s2 { fill: url(#g3) } 
	</style>
	<g id="SvgjsG1448">
		<path class="s0" d="m328 24.7q0 0 0.1 0.1 0 0 0.1 0 0 0 0.1 0 0-0.1 0-0.1 8.2-19 28.3-22.6c2.9-0.5 5.3 0.8 5.2 3.9-0.3 5.3-0.3 11.8 4.6 16 1.8 1.6 4.2 3.1 3.2 6.2-4.6 13.9-5.5 26.5 0.3 40.6 1 2.5 0.2 5.7-2.9 5.9q-1 0.1-3.3-0.9-16-6.5-31.3 1.9-1 0.5-4.1 0.4c-3.4-0.1-6.7-2.5-9.3-3.3q-13.7-4.3-26.7 1.6c-4 1.9-6.3-2.3-4.9-5.8q7.6-19.8 0.4-39.3c-1.2-3.3-0.3-4.5 2.3-6.7 4.5-3.9 5.4-9.3 5-15.4-0.1-2.9 0.7-5.7 4.1-5.1q21 3.3 28.8 22.6zm-27.8-5q0 0 0 0.1 0 0 0 0 0 0 0 0 0.1 0.1 0.1 0 10.3-1.1 18.9 3.4 1.4 0.7 0.6-0.6-6.1-9.6-17.3-13-0.1 0-0.2 0-0.1 0-0.1 0.1-0.1 0-0.2 0.1 0 0.1 0 0.2 0.2 3.7-1.8 9.7zm56.5 0.1q-2-6.2-1.9-9.9 0-0.1 0-0.2-0.1-0.1-0.1-0.2-0.1 0-0.2 0-0.1-0.1-0.2 0-11.4 3.4-17.6 13.2-0.8 1.3 0.6 0.6 8.8-4.6 19.3-3.4 0 0 0 0 0 0 0.1 0 0-0.1 0-0.1 0 0 0 0zm3.5 13.7q0.6 0.2 0.8-0.4l1.2-4.2q0-0.1 0-0.4 0-0.2-0.1-0.3-0.1-0.2-0.3-0.3-0.1-0.2-0.3-0.2-10.4-2.9-18.7 0.5c-4.1 1.7-6.8 2.6-7.7 7q0 0 0 0.1 0.1 0.1 0.1 0.1 0.1 0.1 0.1 0.1 0.1 0 0.2 0 12.1-5.3 24.7-2zm-63.3 0.1q12.5-3.4 24.6 1.8 0.1 0 0.1 0 0.1 0 0.2-0.1 0 0 0-0.1 0.1 0 0-0.1c-0.9-4.3-3.5-5.3-7.6-6.9q-8.3-3.3-18.6-0.4-0.2 0-0.4 0.1-0.1 0.2-0.2 0.3-0.1 0.2-0.2 0.4 0 0.2 0.1 0.4l1.2 4.1q0.1 0.7 0.8 0.5zm1.5 20.8q12.2-2.9 24.1 1 0.1 0 0.2 0 0.1 0 0.2-0.1 0 0 0.1-0.1 0-0.1 0-0.2v-11.3q0-0.6-0.5-0.8-12.1-6.1-24-3.1-0.1 0.1-0.2 0.1-0.1 0.1-0.1 0.2-0.1 0.1-0.1 0.2-0.1 0.1-0.1 0.2l0.1 13.7q0 0 0 0.1 0 0 0.1 0.1 0.1 0 0.1 0 0.1 0.1 0.1 0zm60.3 0q0.1 0 0.2 0 0-0.1 0.1-0.1 0 0 0.1-0.1 0-0.1 0-0.1v-13.6q0-0.1 0-0.3-0.1-0.1-0.1-0.1-0.1-0.1-0.2-0.2-0.1 0-0.2-0.1-11.8-2.9-23.8 3.1-0.5 0.3-0.5 0.8v11.3q0 0.1 0.1 0.2 0 0.1 0.1 0.1 0 0.1 0.1 0.1 0.1 0 0.2 0 11.9-3.9 23.9-1zm-48.7 10q7.8 0.4 13.5 2.9 0.6 0.2 0.5-0.4l-0.5-3.7q-0.1-0.5-0.7-0.7-6.4-2.5-12.6-2.8-6.3-0.3-12.9 1.6-0.6 0.1-0.7 0.7l-0.9 3.5q-0.1 0.7 0.5 0.5 5.9-1.9 13.8-1.6zm51.5 1.3l-1-3.7q0-0.1 0-0.2-0.1 0-0.1-0.1-0.1 0-0.1-0.1-0.1 0-0.1 0-13.1-4.2-26.1 1-0.3 0.1-0.3 0.5v4.2q0 0 0 0.1 0 0 0 0 0.1 0.1 0.1 0.1 0.1 0 0.1 0 13.5-5.4 27.3-1.6 0.3 0 0.2-0.2z"/>
	</g>
	<g id="SvgjsG1449">
		<path class="s1" d="m23 31.1l-0.7-2.8c-1.7 2.1-4.2 3.4-8 3.4-9.3 0-14.3-6.4-14.3-16 0-9.6 5.1-15.7 15.4-15.7 8.3 0 12.3 4.1 12.3 8.2 0 0.3 0 0.6 0 0.9l-7.6 1.5v-0.5c0-2.4-1.6-3.7-4.9-3.7-6.4 0-7 4.6-7 9.1 0 6.1 1.5 9.8 7.2 9.8 2.1 0 5-0.6 5-2.5v-2.3h-5.1v-5.3h14.6v5.3h-2.2v10.6zm28.8 0.6c-9.9 0-15-6.7-15-15.9 0-9.4 5.3-15.8 15.3-15.8 9.4 0 15 5.7 15 15.4 0 9.5-5.3 16.3-15.3 16.3zm0.1-6.4c4.4 0 7.1-2.8 7.1-9.5 0-6.7-2.6-9.4-7-9.4-4.4 0-7.1 2.9-7.1 9.4 0 6.7 2.7 9.5 7 9.5zm35.1 5.8v-5.4h2.4l9-25.1h7.1l10 25.1h2.4v5.4h-12.7v-5.4h2.8l-1.1-3h-9.8l-1 3h2.9v5.4zm11.8-13.7h6.1l-3.3-9.3zm25.6 13.7v-5.3h3.3v-19.8h-3.3v-5.3h14.4v5.3h-3.3v6.9h12.4v-6.9h-3.3v-5.3h14.3v5.3h-3.3v19.8h3.3v5.3h-14.3v-5.3h3.3v-7.1h-12.4v7.1h3.3v5.3zm42.5 0v-5.3h3.4v-19.8h-3.4v-5.3h24.3v9.8h-5.8v-4h-7.4v6.4h8.7v5.8h-8.7v6.6h7.7v-4.4h5.8v10.2zm31.7 0v-5.3h2.3l9.1-25.1h7.1l10 25.1h2.3v5.3h-12.7v-5.3h2.9l-1.2-3.1h-9.7l-1 3.1h2.9v5.3zm11.8-13.7h6.1l-3.3-9.3zm25.6 13.8v-5.4h3.3v-19.7h-3.3v-5.4h15.8c10 0 14.8 6.2 14.8 14.7 0 8.2-4.5 15.8-14.8 15.8zm11.1-5.8h4.6c4.5 0 6.8-3.3 6.8-9.7 0-6.3-2.2-9.2-7.1-9.2h-4.3z"/>
	</g>
	<g id="SvgjsG1450">
		<path class="s2" d="m0 77.8v-6.1h3.9v-22.8h-3.9v-6.2h28v11.4h-6.7v-4.7h-8.5v7.4h10v6.7h-10v7.6h8.9v-5.1h6.6v11.8zm37.8 0v-6.1h3.9v-22.8h-3.9v-6.2h12.5l14.5 21.4v-15.2h-3.9v-6.2h16.2v6.2h-3.9v28.9h-8.7l-14.3-21v14.9h3.8v6.1zm74.1 0l-0.8-3.2c-2 2.5-4.8 4-9.3 4-10.7 0-16.5-7.5-16.5-18.5 0-11.1 5.9-18.1 17.8-18.1 9.5 0 14.2 4.7 14.2 9.4 0 0.4 0 0.7-0.1 1.1l-8.7 1.8v-0.6c0-2.8-1.9-4.3-5.6-4.3-7.4 0-8.2 5.3-8.2 10.5 0 7 1.8 11.3 8.4 11.3 2.4 0 5.8-0.7 5.8-2.9v-2.6h-5.9v-6.2h16.8v6.2h-2.6v12.1zm16.3 0v-6.1h4v-22.8h-3.9v-6.2h16.6v6.2h-3.8v22.2h9.2v-5.4h6.6v12.1zm36.8 0v-6.1h3.8v-22.8h-3.8v-6.2h16.5v6.2h-3.8v22.8h3.8v6.1zm25.1-9.7l8.8-1.8c0.1 3.7 2.9 4.9 5.8 4.9 2.8 0 4.4-1 4.4-2.7 0-5.5-18-3-18-15.7 0-7 5.4-10.8 13.5-10.8 8 0 13.1 3.7 13.1 9.1v0.4l-8.8 1.8c0-1.4-0.3-3.9-4.5-3.9-2.8 0-4.3 1.1-4.3 2.7 0 5.8 18 2.8 18 15.5 0 6.4-4.5 11-13.5 11-9.3 0-14.5-4.9-14.5-10zm36.9 9.7v-6.1h3.8v-22.8h-3.8v-6.2h16.5v6.2h-3.8v7.9h14.4v-7.9h-3.9v-6.2h16.6v6.2h-3.8v22.8h3.8v6.1h-16.6v-6.1h3.9v-8.2h-14.4v8.2h3.8v6.1z"/>
	</g>
</svg>