<svg xmlns="http://www.w3.org/2000/svg" width="1000" height="602" viewBox="0 0 1000 602" version="1.1"><path d="M 425.035 119.934 C 424.357 121.201, 424 141.022, 424 177.363 C 424 240.539, 423.337 236, 432.571 236 L 438 236 438 232 C 438 228.400, 437.750 228, 435.500 228 L 433 228 433 177 L 433 126 515 126 L 597 126 597 177 L 597 228 566 228 L 535 228 535 232 L 535 236 568.800 236 C 593.756 236, 602.914 235.686, 603.800 234.800 C 605.532 233.068, 605.532 120.932, 603.800 119.200 C 602.885 118.285, 581.652 118, 514.335 118 C 428.094 118, 426.047 118.044, 425.035 119.934 M 569.250 143.348 C 564.163 145.038, 560 146.786, 560 147.232 C 560 147.678, 561.125 148.555, 562.500 149.182 C 563.875 149.808, 565 150.613, 565 150.970 C 565 152.243, 556.110 162.006, 550.354 167.055 C 543.857 172.753, 533.877 178.963, 527 181.585 C 514.895 186.200, 521.881 186.126, 535.730 181.492 C 550.431 176.573, 562.582 170.034, 570.491 162.787 L 577.139 156.696 580.569 158.332 C 582.456 159.231, 584 159.734, 584 159.448 C 584 157.982, 579.636 141.413, 579.112 140.887 C 578.775 140.550, 574.337 141.657, 569.250 143.348 M 479.994 159.875 C 466.190 164.401, 459.133 177.665, 463.229 191.384 C 464.905 196.998, 473.238 205.463, 478.500 206.898 C 488.683 209.675, 496.681 207.672, 503.559 200.622 C 515.737 188.140, 512.492 169.511, 496.718 161.354 C 493.184 159.527, 483.631 158.682, 479.994 159.875 M 573 186.500 L 573 205 579 205 L 585 205 585 186.500 L 585 168 579 168 L 573 168 573 186.500 M 489.095 178.110 C 483.581 180.801, 481.964 181.150, 477.110 180.702 C 474.025 180.416, 470.488 179.864, 469.250 179.475 C 467.150 178.814, 467.001 179.058, 467.022 183.133 C 467.050 188.681, 469.833 194.840, 473.832 198.205 C 486.054 208.489, 503.912 200.829, 505.751 184.515 C 506.170 180.796, 505.863 179.772, 503.667 177.576 C 500.263 174.172, 496.916 174.295, 489.095 178.110 M 555 192.050 L 555 205.100 560.750 204.800 L 566.500 204.500 566.780 191.750 L 567.060 179 561.030 179 L 555 179 555 192.050 M 537 196 L 537 205 543 205 L 549 205 549 196 L 549 187 543 187 L 537 187 537 196 M 520.667 193.667 C 520.300 194.033, 520 196.733, 520 199.667 L 520 205 526 205 L 532 205 532 199 L 532 193 526.667 193 C 523.733 193, 521.033 193.300, 520.667 193.667 M 456.885 218.361 C 446.709 222.050, 442.026 229.572, 442.010 242.250 L 442 250 457.500 250 C 469.589 250, 473 249.713, 473 248.694 C 473 247.975, 471.037 240.663, 468.638 232.444 C 463.852 216.045, 463.717 215.884, 456.885 218.361 M 481.821 219.493 C 480.839 221.649, 480.929 222.610, 482.335 224.989 C 483.715 227.326, 483.856 228.688, 483.075 232.160 C 482.546 234.517, 482.300 236.633, 482.529 236.862 C 482.758 237.091, 484.475 236.113, 486.343 234.687 C 489.054 232.620, 489.641 231.573, 489.247 229.513 C 488.938 227.894, 489.397 226.218, 490.479 225.023 C 491.823 223.539, 491.999 222.493, 491.275 220.308 C 490.513 218.007, 489.683 217.444, 486.679 217.190 C 483.549 216.925, 482.837 217.263, 481.821 219.493 M 505.533 228.655 C 503.532 235.170, 501.244 242.493, 500.448 244.928 C 499.651 247.364, 499 249.501, 499 249.678 C 499 249.855, 506.200 250, 515 250 L 531 250 531 243.682 C 531 229.077, 524.470 219.680, 512.801 217.490 L 509.171 216.809 505.533 228.655 M 485.351 239.538 C 481.628 242.144, 480.055 243.974, 479.605 246.223 C 479.265 247.926, 479.139 249.473, 479.327 249.660 C 479.575 249.908, 489.536 243.413, 491.717 241.582 C 491.836 241.481, 491.606 240.173, 491.205 238.675 L 490.476 235.950 485.351 239.538 M 489.445 247.349 L 486.500 249.937 490.250 249.968 C 494.138 250.001, 494.352 249.753, 493.125 246.630 C 492.436 244.877, 492.206 244.922, 489.445 247.349 M 817.750 530.716 C 813.448 531.368, 814.294 533.681, 818.648 533.173 L 822.296 532.747 821.656 541.123 C 821.087 548.580, 820.927 567.212, 821.347 577.115 C 821.490 580.494, 821.648 580.662, 823.774 579.693 C 826.295 578.545, 827.607 574.951, 826.491 572.252 C 825.658 570.238, 825.788 538.128, 826.649 533.250 C 827.206 530.094, 827.126 530.004, 823.861 530.150 C 822.013 530.232, 819.263 530.487, 817.750 530.716 M 250.994 533.934 C 248.169 534.794, 242 537.863, 242 538.409 C 242 538.605, 243.912 538.098, 246.250 537.281 C 250.393 535.834, 258.586 535.967, 266.832 537.616 C 269.638 538.178, 270 538.635, 270 541.625 C 270 544.255, 270.413 545, 271.869 545 C 273.252 545, 273.900 544.025, 274.358 541.250 C 274.699 539.188, 274.983 536.984, 274.989 536.353 C 275.012 533.993, 256.825 532.160, 250.994 533.934 M 331.250 534.973 C 326.647 537.063, 325.382 538.566, 329.565 536.975 C 332.923 535.698, 337.695 535.741, 344.055 537.105 C 349.050 538.176, 349.190 538.300, 348.621 541.143 C 348.198 543.260, 348.466 544.242, 349.585 544.671 C 351.723 545.492, 352.639 544.201, 353.371 539.333 L 353.997 535.165 348.949 534.083 C 341.601 532.507, 336.070 532.785, 331.250 534.973 M 459 534.347 C 457.075 535.039, 454.600 536.178, 453.500 536.878 C 451.579 538.100, 451.578 538.126, 453.455 537.528 C 462.090 534.778, 472.457 536.778, 477.714 542.209 C 482.270 546.917, 484 551.812, 484 560 C 484 567.588, 482.324 572.927, 478.702 576.872 L 476.500 579.271 478.672 578.142 C 481.920 576.454, 486.911 569.968, 488.015 566 C 489.297 561.392, 489.255 552.457, 487.928 547.679 C 484.891 536.744, 470.621 530.167, 459 534.347 M 675.799 534.526 C 670.193 536.322, 668.363 538.291, 673.659 536.828 C 679.091 535.329, 687.087 536.669, 692.253 539.946 C 698.803 544.099, 701.504 550.144, 701.486 560.610 C 701.474 568.006, 701.187 569.180, 698.229 573.939 C 695.032 579.081, 695.024 579.126, 697.648 577.063 C 704.134 571.960, 705 569.610, 705 557.109 C 705 546.453, 704.815 545.341, 702.486 541.980 C 697.367 534.593, 685.733 531.343, 675.799 534.526 M 160 535.500 C 160 536.756, 162.111 537, 173 537 L 186 537 186 540.500 C 186 543.333, 186.381 544, 188 544 C 189.512 544, 190.003 543.329, 190.014 541.250 C 190.021 539.737, 190.299 537.487, 190.630 536.250 L 191.233 534 175.617 534 C 162.402 534, 160 534.231, 160 535.500 M 195 535.500 C 195 536.328, 195.886 537, 196.977 537 C 198.411 537, 201.230 540.505, 207.227 549.744 L 215.500 562.488 215.809 557.634 C 216.096 553.137, 215.662 552.087, 209.927 543.390 L 203.736 534 199.368 534 C 196.152 534, 195 534.396, 195 535.500 M 221 535.500 C 221 536.504, 222.004 537, 224.037 537 L 227.074 537 226.787 559.001 C 226.505 580.640, 226.534 581.002, 228.559 581.001 C 230.577 581, 230.621 580.526, 230.721 557.500 L 230.822 534 225.911 534 C 222.212 534, 221 534.370, 221 535.500 M 279 535.500 C 279 536.500, 280 537, 282 537 L 285 537 285 555.500 L 285 574 294.440 574 L 303.879 574 304.272 577.750 C 304.594 580.835, 304.694 580.569, 304.832 576.250 L 305 571 297.500 571 L 290 571 290 552.500 L 290 534 284.500 534 C 280.278 534, 279 534.348, 279 535.500 M 310 535.500 C 310 536.500, 311 537, 313 537 L 316 537 316 559 C 316 576.718, 316.261 581, 317.340 581 C 319.393 581, 321.324 568.782, 320.581 560.500 C 319.709 550.787, 319.698 546.412, 320.530 539.750 L 321.248 534 315.624 534 C 311.292 534, 310 534.344, 310 535.500 M 358 535.500 C 358 536.500, 359 537, 361 537 L 364 537 364 546 L 364 555 372 555 C 378.444 555, 380 554.708, 380 553.500 C 380 552.348, 378.722 552, 374.500 552 L 369 552 369 543 L 369 534 363.500 534 C 359.278 534, 358 534.348, 358 535.500 M 385 535.500 C 385 536.433, 385.944 537, 387.500 537 L 390 537 390 559 L 390 581 392.500 581 L 395 581 395 557.500 L 395 534 390 534 C 386.222 534, 385 534.367, 385 535.500 M 409 535.500 C 409 536.771, 411.444 537, 425 537 L 441 537 441 540.570 C 441 543.699, 441.277 544.100, 443.250 543.820 C 445.170 543.547, 445.545 542.803, 445.805 538.750 L 446.110 534 427.555 534 C 411.728 534, 409 534.221, 409 535.500 M 501 535.500 C 501 536.771, 503.438 537, 516.940 537 L 532.879 537 533.272 540.750 L 533.664 544.500 533.832 540.750 C 533.968 537.723, 534.385 537, 536 537 C 537.111 537, 538 536.333, 538 535.500 C 538 534.221, 535.278 534, 519.500 534 C 503.722 534, 501 534.221, 501 535.500 M 539 535.500 C 539 536.500, 540 537, 542 537 L 545 537 545 546 L 545 555 553 555 C 559.444 555, 561 554.708, 561 553.500 C 561 552.348, 559.722 552, 555.500 552 L 550 552 550 543 L 550 534 544.500 534 C 540.278 534, 539 534.348, 539 535.500 M 565 535.500 C 565 536.500, 566 537, 568 537 L 571 537 571 559 L 571 581 573.500 581 L 576 581 576 557.500 L 576 534 570.500 534 C 566.278 534, 565 534.348, 565 535.500 M 581 535.500 C 581 536.760, 583.179 537, 594.609 537 L 608.219 537 607.805 540.544 C 607.442 543.655, 607.642 544.052, 609.446 543.794 C 611.136 543.552, 611.554 542.659, 611.805 538.750 L 612.110 534 596.555 534 C 583.395 534, 581 534.231, 581 535.500 M 630 535.412 C 630 536.715, 631.287 537, 637.184 537 C 646.809 537, 652.191 539.520, 654.410 545.066 C 656.493 550.273, 656.417 553.758, 654.124 558.258 C 652.400 561.638, 652.389 561.862, 653.983 561.009 C 654.961 560.485, 656.171 557.989, 656.755 555.290 C 657.324 552.655, 658.393 549.020, 659.129 547.212 C 660.269 544.410, 660.248 543.537, 658.984 541.309 C 655.816 535.726, 652.791 534.529, 640.930 534.162 C 631.469 533.869, 630 534.036, 630 535.412 M 710 535.500 C 710 536.504, 711.004 537, 713.037 537 L 716.074 537 715.787 559.001 L 715.500 581.002 717.750 581.001 L 720 581 720 557.500 L 720 534 715 534 C 711.222 534, 710 534.367, 710 535.500 M 726 535.500 C 726 536.389, 726.917 537, 728.250 537 C 730.040 537, 732.237 539.697, 739 550.194 L 747.500 563.387 747.808 558.620 C 748.090 554.246, 747.597 553.041, 741.808 543.982 L 735.500 534.110 730.750 534.055 C 727.170 534.014, 726 534.369, 726 535.500 M 753 535.500 C 753 536.433, 753.944 537, 755.500 537 L 758 537 758 559.070 L 758 581.139 760.250 580.820 C 762.468 580.504, 762.504 580.264, 762.774 563.750 C 763.040 547.510, 762.987 547, 761.024 547 C 759.262 547, 759 546.353, 759 542 C 759 537.667, 759.267 537, 761 537 C 762.111 537, 763 536.333, 763 535.500 C 763 534.367, 761.778 534, 758 534 C 754.222 534, 753 534.367, 753 535.500 M 764 535.500 C 764 536.771, 766.444 537, 780 537 L 796 537 796 540.570 C 796 543.699, 796.277 544.100, 798.250 543.820 C 800.170 543.547, 800.545 542.803, 800.805 538.750 L 801.110 534 782.555 534 C 766.728 534, 764 534.221, 764 535.500 M 331.250 547.084 C 326.874 548.740, 328.597 550.910, 338.524 556.248 C 343.589 558.971, 347.255 561.722, 348.717 563.898 C 351.163 567.538, 351.684 572.853, 349.919 576.151 C 348.402 578.986, 349.254 579.343, 351.823 576.950 C 353.681 575.220, 354 573.835, 354 567.512 C 354 560.319, 353.905 560.030, 350.750 557.663 C 348.962 556.321, 345.157 554.051, 342.294 552.617 C 339.431 551.184, 336.281 549.161, 335.294 548.122 C 333.954 546.710, 332.931 546.448, 331.250 547.084 M 166 551 L 166 555 175.500 555 L 185 555 185 558.573 C 185 561.436, 185.348 562.081, 186.750 561.814 C 188.066 561.564, 188.575 560.316, 188.803 556.779 L 189.106 552.076 179.803 551.788 C 171.018 551.516, 170.482 551.375, 170.180 549.250 C 169.975 547.804, 169.171 547, 167.930 547 C 166.345 547, 166 547.715, 166 551 M 245.648 548.177 C 241.664 550.406, 239.715 560.479, 242.067 566.685 C 243.801 571.261, 246.936 573.868, 251.537 574.558 C 259.096 575.691, 263.509 572.769, 256.123 571.521 C 253.733 571.117, 251.161 569.734, 249.419 567.915 C 247.060 565.453, 246.526 563.916, 246.188 558.618 C 245.948 554.843, 246.266 551.372, 246.973 550.050 C 248.424 547.340, 248.061 546.827, 245.648 548.177 M 428 564 L 428 581 430.500 581 L 433 581 433 564 L 433 547 430.500 547 L 428 547 428 564 M 454.266 548.526 C 449.028 552.195, 448.640 565.928, 453.629 571.134 C 455.951 573.558, 457.164 574, 461.496 574 C 464.451 574, 467.439 573.379, 468.559 572.532 C 470.358 571.171, 470.166 571.061, 465.937 571.032 C 462.189 571.006, 460.858 570.461, 458.483 567.983 C 456.053 565.446, 455.528 563.954, 455.188 558.618 C 454.948 554.843, 455.266 551.372, 455.973 550.050 C 457.504 547.190, 456.919 546.668, 454.266 548.526 M 520 564.070 L 520 581.139 522.250 580.820 C 524.468 580.504, 524.504 580.264, 524.774 563.750 L 525.048 547 522.524 547 L 520 547 520 564.070 M 587 551 L 587 555 596.500 555 L 606 555 606 558.570 C 606 561.699, 606.277 562.100, 608.250 561.820 C 610.170 561.547, 610.545 560.803, 610.805 556.750 L 611.110 552 601.555 552 C 592.030 552, 592 551.992, 592 549.500 C 592 547.500, 591.500 547, 589.500 547 C 587.250 547, 587 547.400, 587 551 M 636 552 L 636 557 639.378 557 C 641.235 557, 643.315 556.325, 644 555.500 C 645.040 554.247, 644.896 554, 643.122 554 C 641.363 554, 641 553.401, 641 550.500 C 641 547.433, 640.690 547, 638.500 547 C 636.167 547, 636 547.333, 636 552 M 671.150 549.340 C 666.078 554.739, 666.023 566.177, 671.044 571.198 C 673.349 573.503, 674.713 574, 678.732 574 C 681.480 574, 684.467 573.358, 685.559 572.532 C 687.363 571.167, 687.195 571.061, 683.173 571.032 C 679.779 571.007, 678.235 570.388, 676.009 568.163 C 672.253 564.407, 671.073 557.237, 673.224 551.250 C 674.947 546.457, 674.363 545.920, 671.150 549.340 M 783 564.070 L 783 581.139 785.250 580.820 C 787.468 580.504, 787.504 580.264, 787.774 563.750 L 788.048 547 785.524 547 L 783 547 783 564.070 M 257.667 554.667 C 256.012 556.321, 257.469 556.929, 263.750 557.204 L 270.500 557.500 270.784 568.267 C 271.057 578.622, 271.143 578.994, 273.034 577.982 C 274.813 577.030, 275 575.840, 275 565.465 L 275 554 266.667 554 C 262.083 554, 258.033 554.300, 257.667 554.667 M 731 568.768 L 731 581 733.500 581 C 735.972 581, 736 580.904, 736 572.447 C 736 564.971, 735.685 563.430, 733.500 560.215 L 731 556.536 731 568.768 M 200 569.570 C 200 580.996, 200.028 581.135, 202.250 580.820 C 204.334 580.524, 204.522 579.924, 204.793 572.688 C 205.039 566.141, 204.742 564.319, 202.962 561.438 C 201.793 559.547, 200.649 558, 200.418 558 C 200.188 558, 200 563.206, 200 569.570 M 166 569.500 L 166 574 176.500 574 L 187 574 187 577.500 C 187 579.944, 187.452 581, 188.500 581 C 189.632 581, 190 579.782, 190 576.036 L 190 571.072 180.250 570.786 L 170.500 570.500 170.184 567.750 C 169.960 565.807, 169.300 565, 167.934 565 C 166.309 565, 166 565.718, 166 569.500 M 364 573.070 C 364 580.866, 364.076 581.128, 366.250 580.820 C 368.332 580.524, 368.522 579.922, 368.792 572.750 C 369.083 565.039, 369.071 565, 366.542 565 C 364.029 565, 364 565.093, 364 573.070 M 545 573.070 C 545 580.866, 545.076 581.128, 547.250 580.820 C 549.332 580.524, 549.522 579.922, 549.792 572.750 C 550.083 565.039, 550.071 565, 547.542 565 C 545.029 565, 545 565.093, 545 573.070 M 587 569.500 L 587 574 597.500 574 L 608 574 608 577.500 C 608 580.567, 608.310 581, 610.500 581 C 612.833 581, 613 580.667, 613 576 L 613 571 602.500 571 L 592 571 592 568 C 592 565.467, 591.611 565, 589.500 565 C 587.204 565, 587 565.367, 587 569.500 M 636 574.070 C 636 580.829, 636.099 581.125, 638.250 580.820 C 640.294 580.529, 640.527 579.883, 640.796 573.750 C 641.087 567.107, 641.051 567, 638.546 567 C 636.058 567, 636 567.162, 636 574.070 M 324.748 570.855 C 324.078 573.417, 325.601 574, 332.959 574 C 336.664 574, 339.168 573.503, 339.899 572.622 C 340.842 571.486, 340.029 571.150, 335.271 570.713 C 332.097 570.422, 328.549 569.881, 327.388 569.511 C 325.787 569.002, 325.148 569.327, 324.748 570.855" stroke="none" fill="#e6e6b5" fill-rule="evenodd"/><path d="M 499.500 13.028 C 441.086 19.644, 390.647 54.821, 365.477 106.500 C 338.918 161.028, 343.447 225.594, 377.289 274.906 C 422.127 340.240, 505.287 365.866, 578.414 336.885 C 598.682 328.852, 615.897 317.718, 632.353 302 C 700.181 237.211, 702.298 130.840, 637.096 63.640 C 611.463 37.221, 579.496 20.427, 543.500 14.468 C 532.081 12.577, 509.890 11.851, 499.500 13.028 M 425.035 119.934 C 424.357 121.201, 424 141.022, 424 177.363 C 424 240.539, 423.337 236, 432.571 236 L 438 236 438 232 C 438 228.400, 437.750 228, 435.500 228 L 433 228 433 177 L 433 126 515 126 L 597 126 597 177 L 597 228 566 228 L 535 228 535 232 L 535 236 568.800 236 C 593.756 236, 602.914 235.686, 603.800 234.800 C 605.532 233.068, 605.532 120.932, 603.800 119.200 C 602.885 118.285, 581.652 118, 514.335 118 C 428.094 118, 426.047 118.044, 425.035 119.934 M 569.250 143.348 C 564.163 145.038, 560 146.786, 560 147.232 C 560 147.678, 561.125 148.555, 562.500 149.182 C 563.875 149.808, 565 150.613, 565 150.970 C 565 152.243, 556.110 162.006, 550.354 167.055 C 543.857 172.753, 533.877 178.963, 527 181.585 C 514.895 186.200, 521.881 186.126, 535.730 181.492 C 550.431 176.573, 562.582 170.034, 570.491 162.787 L 577.139 156.696 580.569 158.332 C 582.456 159.231, 584 159.734, 584 159.448 C 584 157.982, 579.636 141.413, 579.112 140.887 C 578.775 140.550, 574.337 141.657, 569.250 143.348 M 479.994 159.875 C 466.190 164.401, 459.133 177.665, 463.229 191.384 C 464.905 196.998, 473.238 205.463, 478.500 206.898 C 488.683 209.675, 496.681 207.672, 503.559 200.622 C 515.737 188.140, 512.492 169.511, 496.718 161.354 C 493.184 159.527, 483.631 158.682, 479.994 159.875 M 573 186.500 L 573 205 579 205 L 585 205 585 186.500 L 585 168 579 168 L 573 168 573 186.500 M 489.095 178.110 C 483.581 180.801, 481.964 181.150, 477.110 180.702 C 474.025 180.416, 470.488 179.864, 469.250 179.475 C 467.150 178.814, 467.001 179.058, 467.022 183.133 C 467.050 188.681, 469.833 194.840, 473.832 198.205 C 486.054 208.489, 503.912 200.829, 505.751 184.515 C 506.170 180.796, 505.863 179.772, 503.667 177.576 C 500.263 174.172, 496.916 174.295, 489.095 178.110 M 555 192.050 L 555 205.100 560.750 204.800 L 566.500 204.500 566.780 191.750 L 567.060 179 561.030 179 L 555 179 555 192.050 M 537 196 L 537 205 543 205 L 549 205 549 196 L 549 187 543 187 L 537 187 537 196 M 520.667 193.667 C 520.300 194.033, 520 196.733, 520 199.667 L 520 205 526 205 L 532 205 532 199 L 532 193 526.667 193 C 523.733 193, 521.033 193.300, 520.667 193.667 M 456.885 218.361 C 446.709 222.050, 442.026 229.572, 442.010 242.250 L 442 250 457.500 250 C 469.589 250, 473 249.713, 473 248.694 C 473 247.975, 471.037 240.663, 468.638 232.444 C 463.852 216.045, 463.717 215.884, 456.885 218.361 M 481.821 219.493 C 480.839 221.649, 480.929 222.610, 482.335 224.989 C 483.715 227.326, 483.856 228.688, 483.075 232.160 C 482.546 234.517, 482.300 236.633, 482.529 236.862 C 482.758 237.091, 484.475 236.113, 486.343 234.687 C 489.054 232.620, 489.641 231.573, 489.247 229.513 C 488.938 227.894, 489.397 226.218, 490.479 225.023 C 491.823 223.539, 491.999 222.493, 491.275 220.308 C 490.513 218.007, 489.683 217.444, 486.679 217.190 C 483.549 216.925, 482.837 217.263, 481.821 219.493 M 505.533 228.655 C 503.532 235.170, 501.244 242.493, 500.448 244.928 C 499.651 247.364, 499 249.501, 499 249.678 C 499 249.855, 506.200 250, 515 250 L 531 250 531 243.682 C 531 229.077, 524.470 219.680, 512.801 217.490 L 509.171 216.809 505.533 228.655 M 485.351 239.538 C 481.628 242.144, 480.055 243.974, 479.605 246.223 C 479.265 247.926, 479.139 249.473, 479.327 249.660 C 479.575 249.908, 489.536 243.413, 491.717 241.582 C 491.836 241.481, 491.606 240.173, 491.205 238.675 L 490.476 235.950 485.351 239.538 M 489.445 247.349 L 486.500 249.937 490.250 249.968 C 494.138 250.001, 494.352 249.753, 493.125 246.630 C 492.436 244.877, 492.206 244.922, 489.445 247.349 M 68 379.500 L 68 382 509.500 382 L 951 382 951 379.500 L 951 377 509.500 377 L 68 377 68 379.500 M 38 421.882 C 31.826 423.907, 25.081 428.206, 20.660 432.932 C 2.127 452.746, 7.440 485.786, 31.013 497.301 C 46.123 504.683, 67.759 502.897, 82 493.092 L 87.500 489.306 87.774 472.653 L 88.048 456 67.524 456 L 47 456 47 464.500 L 47 473 57.500 473 L 68 473 68 476.391 C 68 479.381, 67.556 479.958, 64.250 481.260 C 46.645 488.197, 30.987 479.023, 31.006 461.782 C 31.021 447.449, 38.675 439, 51.644 439 C 60.464 439, 66.411 442.456, 72 450.830 C 73.404 452.934, 73.962 453.034, 80.750 452.395 L 88 451.713 88 436.856 L 88 422 78.500 422 C 69.724 422, 69 422.150, 69 423.964 C 69 425.895, 68.919 425.893, 64.250 423.810 C 59.101 421.513, 42.780 420.314, 38 421.882 M 834.388 421.926 C 830.965 423.397, 828 427.950, 828 431.735 C 828 434.342, 828.842 436.042, 831.400 438.600 C 834.471 441.671, 835.351 442, 840.500 442 C 845.649 442, 846.529 441.671, 849.600 438.600 C 854.056 434.144, 854.251 429.431, 850.168 424.862 C 847.761 422.168, 846.523 421.642, 841.918 421.355 C 838.938 421.170, 835.550 421.426, 834.388 421.926 M 204 431 L 204 440 207.567 440 C 211.889 440, 212.424 437.920, 201.648 463.022 L 193.287 482.500 187.605 482.801 L 181.924 483.102 182.212 491.801 L 182.500 500.500 203.250 500.770 L 224 501.041 224 492.020 L 224 483 219 483 C 216.250 483, 214 482.842, 214 482.649 C 214 482.456, 214.494 480.881, 215.098 479.149 L 216.196 476 227.937 476 C 239.549 476, 239.692 476.028, 240.839 478.547 C 242.655 482.532, 242.304 483, 237.500 483 L 233 483 233 492 L 233 501 271.500 501 L 310 501 310 492 L 310 483 305.956 483 L 301.912 483 302.206 475.796 C 302.500 468.595, 302.502 468.591, 306.828 465.296 C 311.793 461.514, 316.727 460.936, 319.345 463.829 C 320.617 465.234, 321 467.663, 321 474.329 L 321 483 317 483 L 313 483 313 492 L 313 501 331.500 501 L 350 501 350 493.859 L 350 486.718 354.036 491.304 C 356.346 493.928, 360.516 497.077, 363.786 498.666 C 368.795 501.101, 370.673 501.446, 379 501.462 C 387.268 501.477, 389.257 501.126, 394.336 498.756 C 397.546 497.258, 401.899 494.664, 404.011 492.992 C 407.626 490.128, 407.886 490.065, 408.473 491.914 C 409.465 495.042, 415.599 499.815, 420.237 501.068 C 426.504 502.762, 434.216 501.633, 440.462 498.108 C 445.190 495.440, 445.973 495.263, 447.089 496.607 C 450.759 501.029, 461.226 502.461, 467.300 499.373 C 469.060 498.478, 470.657 497.608, 470.849 497.440 C 471.041 497.272, 470.379 493.955, 469.378 490.068 C 467.671 483.443, 467.383 483, 464.779 483 L 462 483 461.978 471.750 C 461.961 462.940, 461.554 459.632, 460.104 456.500 C 454.978 445.428, 442.707 441.055, 426.170 444.405 C 416.681 446.328, 408.985 449.386, 409.035 451.214 C 409.054 451.922, 409.899 455.425, 410.912 459 C 412.653 465.143, 412.909 465.488, 415.587 465.283 L 418.421 465.066 415.372 466.920 C 409.083 470.745, 405.362 478.205, 406.290 485.126 L 406.812 489.020 402.793 482.801 C 399.626 477.901, 399.007 476.256, 399.876 475.041 C 407.149 464.876, 406.457 455.718, 397.895 448.812 C 393.278 445.089, 383.145 442.590, 376.045 443.425 C 369.516 444.192, 360.643 448.029, 356.661 451.807 C 349.825 458.292, 346.176 469.268, 347.860 478.282 L 348.742 483 344.952 483 L 341.163 483 340.832 470.750 C 340.550 460.338, 340.148 457.785, 338.154 453.736 C 333.900 445.097, 323.510 441.256, 312.809 444.367 C 309.788 445.245, 306.119 446.905, 304.658 448.055 L 302 450.145 302 436.073 L 302 422 286.500 422 L 271 422 271 430.500 L 271 439 276.500 439 L 282 439 282 461 L 282 483 273.115 483 L 264.229 483 255.513 462.750 C 250.720 451.613, 246.570 441.938, 246.292 441.250 C 245.943 440.388, 246.904 440, 249.393 440 L 253 440 253 431 L 253 422 228.500 422 L 204 422 204 431 M 499 430.500 L 499 439 504.500 439 L 510 439 510 442.607 C 510 445.651, 509.727 446.101, 508.250 445.491 C 489.151 437.605, 468 451.722, 468 472.356 C 468 481.363, 470.493 487.623, 476.451 493.582 C 480.575 497.705, 483.014 499.239, 487.544 500.556 C 494.921 502.700, 502.514 502.002, 508.562 498.621 L 513.065 496.104 516.672 498.552 C 520.919 501.434, 528.950 501.883, 534.532 499.551 C 538.521 497.884, 538.558 497.684, 536.351 489.566 C 534.347 482.193, 533.800 481.501, 531.107 482.943 L 529 484.070 529 453.035 L 529 422 514 422 L 499 422 499 430.500 M 567 431 L 567 440 573.500 440 L 580 440 580 461.500 L 580 483 573.461 483 L 566.922 483 567.211 491.750 L 567.500 500.500 606.750 500.762 L 646 501.023 646 485.012 L 646 469 636.500 469 L 627 469 627 476 L 627 483 613.500 483 L 600 483 600 476.500 L 600 470 603.500 470 C 606.981 470, 607 470.024, 607 474.500 L 607 479 615.500 479 L 624 479 624 461.500 L 624 444 615.500 444 L 607 444 607 448.500 C 607 452.976, 606.981 453, 603.500 453 L 600 453 600 446.500 L 600 440 613.500 440 L 627 440 627 447 L 627 454 636.500 454 L 646 454 646 438 L 646 422 606.500 422 L 567 422 567 431 M 783.667 422.667 C 783.300 423.033, 783 425.683, 783 428.555 L 783 433.777 779.297 434.472 C 774.268 435.416, 768.469 438.492, 766.547 441.237 C 765.110 443.287, 764.141 443.504, 756.231 443.542 C 746.036 443.591, 740.443 445.624, 734.701 451.366 C 729.915 456.152, 728.373 461.715, 729.845 468.885 C 730.888 473.965, 730.811 474.436, 728.475 477.212 C 727.114 478.830, 726 480.794, 726 481.577 C 726 482.528, 724.874 483, 722.603 483 L 719.206 483 718.820 470.750 C 718.524 461.368, 718.004 457.681, 716.600 455 C 712.154 446.515, 707.286 443.614, 697.500 443.618 C 690.689 443.621, 683.289 446.105, 681.509 448.986 C 680.283 450.970, 679 449.955, 679 447 L 679 444 664 444 L 649 444 649 453 L 649 462 654 462 L 659 462 659 472.500 L 659 483 654 483 L 649 483 649 492.022 L 649 501.043 668.250 500.772 L 687.500 500.500 687.789 491.750 L 688.078 483 683.539 483 L 679 483 679 476.584 C 679 470.301, 679.082 470.103, 682.972 467.022 C 687.734 463.251, 692.277 461.775, 695.431 462.974 C 698.515 464.146, 699 465.791, 699 475.082 L 699 483 695 483 L 691 483 691 492 L 691 501 707.500 501 L 724 501 724 505.352 C 724 511.551, 727.185 515.843, 734.500 519.500 C 740.181 522.341, 741.111 522.494, 752 522.388 C 761.032 522.300, 764.767 521.817, 769.405 520.138 C 779.267 516.569, 785.546 510.954, 786.611 504.750 L 787.256 501 831.544 501 C 859.562 501, 875.956 500.640, 876.167 500.020 C 876.369 499.427, 878.469 499.653, 881.500 500.594 C 891.185 503.604, 903.901 500.756, 908.845 494.470 L 910.879 491.884 911.190 496.192 L 911.500 500.500 930.750 500.772 L 950 501.043 950 492.022 L 950 483 946 483 L 942 483 942 476.087 L 942 469.173 946.250 466.045 C 951.130 462.453, 953.977 461.527, 957.455 462.399 C 960.496 463.162, 961.987 467.876, 961.994 476.750 L 962 483 957.461 483 L 952.922 483 953.211 491.750 L 953.500 500.500 972 500.500 L 990.500 500.500 990.789 491.750 L 991.078 483 986.691 483 L 982.305 483 981.637 471.306 C 980.596 453.082, 976.639 446.497, 965.133 443.841 C 958.842 442.389, 951.133 443.866, 945.689 447.566 L 942 450.072 942 436.036 L 942 422 926.500 422 L 911 422 911 430.500 L 911 439 916.500 439 L 922 439 922 461 L 922 483 917 483 C 913.085 483, 912 482.653, 912 481.401 C 912 478.196, 908.628 472.819, 905.125 470.439 L 901.536 468 904.518 467.985 C 909.827 467.957, 910.097 467.314, 909.786 455.419 L 909.500 444.500 902.097 444.203 C 898.025 444.040, 894.285 444.315, 893.785 444.815 C 893.240 445.360, 891.200 445.138, 888.688 444.262 C 883.315 442.387, 874.684 443.100, 869.262 445.866 C 863.435 448.839, 860.689 453.154, 860.184 460.129 C 859.699 466.833, 862.137 471.893, 867.395 475.099 L 870.500 476.993 866.832 476.996 C 861.634 477.002, 860 477.865, 860 480.607 C 860 482.730, 859.551 483, 856.022 483 L 852.043 483 851.772 463.750 L 851.500 444.500 836.500 444.500 L 821.500 444.500 821.211 453.250 L 820.922 462 826.461 462 L 832 462 832 472.500 L 832 483 823 483 L 814 483 814 452.500 L 814 422 799.167 422 C 791.008 422, 784.033 422.300, 783.667 422.667 M 786.798 445.250 L 786.500 451.500 782.278 451.806 L 778.056 452.112 780.028 455.791 C 784.149 463.481, 781.344 474.507, 773.933 479.749 C 769.381 482.968, 769.043 484, 772.540 484 C 773.937 484, 776.831 484.894, 778.972 485.986 L 782.865 487.972 783.182 485.736 C 783.458 483.793, 784.187 483.460, 788.750 483.198 L 794 482.895 794 460.948 L 794 439 790.548 439 L 787.095 439 786.798 445.250 M 115.500 443.892 C 100.670 447.893, 92.020 458.432, 92.020 472.500 C 92.020 484.534, 97.822 493.547, 109 498.877 C 116.327 502.371, 129.048 502.610, 136.051 499.385 C 142.433 496.445, 147.675 491.543, 150.802 485.590 C 153.059 481.292, 153.472 479.255, 153.458 472.500 C 153.443 465.561, 153.054 463.794, 150.521 459.176 C 145.514 450.045, 136.017 444.265, 124.776 443.506 C 121.324 443.273, 117.150 443.447, 115.500 443.892 M 225.700 451.250 C 224.881 453.587, 223.891 456.288, 223.499 457.250 C 222.874 458.784, 223.429 459, 228 459 C 232.571 459, 233.126 458.784, 232.501 457.250 C 232.109 456.288, 231.119 453.587, 230.300 451.250 C 229.482 448.913, 228.447 447, 228 447 C 227.553 447, 226.518 448.913, 225.700 451.250 M 881.566 458.923 C 878.994 459.897, 880.264 460.619, 889.638 463.511 C 896.916 465.757, 897.099 465.767, 895.331 463.813 C 891.908 460.030, 885.062 457.598, 881.566 458.923 M 752 460.288 C 749.063 461.766, 748.174 466.069, 750.420 467.934 C 752.460 469.627, 758.439 469.710, 760.412 468.073 C 762.690 466.182, 762.369 462.372, 759.777 460.557 C 757.101 458.682, 755.313 458.620, 752 460.288 M 376 461.315 C 374.075 461.967, 372.500 462.950, 372.500 463.500 C 372.500 464.956, 380.554 465.309, 383.069 463.963 C 387.252 461.725, 381.336 459.509, 376 461.315 M 115.607 463.888 C 113.921 465.648, 112.635 468.300, 112.317 470.674 C 110.715 482.618, 123.180 489.517, 130.545 480.764 C 132.928 477.932, 133.165 476.964, 132.781 471.647 C 132.423 466.698, 131.891 465.303, 129.620 463.349 C 125.544 459.843, 119.250 460.085, 115.607 463.888 M 426.559 462.072 C 420.698 463.523, 421.187 463.791, 428.714 463.253 C 432.446 462.986, 437.271 463.256, 439.435 463.854 C 443.052 464.853, 443.239 464.811, 441.759 463.331 C 439.804 461.376, 431.988 460.729, 426.559 462.072 M 495 462.702 C 492.883 463.790, 490.757 466.021, 489.621 468.348 C 485.846 476.078, 491.438 484.649, 499.659 483.731 C 501.946 483.475, 505.208 482.276, 506.909 481.065 C 509.853 478.968, 510 478.535, 510 471.955 C 510 465.770, 509.749 464.882, 507.606 463.477 C 503.797 460.981, 498.932 460.682, 495 462.702 M 390.500 479.155 C 385.453 481.060, 375.220 481.178, 370.500 479.385 C 368.745 478.719, 368.663 478.826, 369.830 480.262 C 371.889 482.794, 377.739 484.308, 382.794 483.615 C 386.743 483.074, 396 478.758, 396 477.458 C 396 477.206, 395.887 477.060, 395.750 477.134 C 395.613 477.207, 393.250 478.117, 390.500 479.155 M 873.211 479.741 C 877.509 484.348, 887.781 488.055, 890.857 486.108 C 892.650 484.974, 892.015 484.637, 880.559 480.645 C 871.031 477.326, 870.948 477.316, 873.211 479.741 M 429 479.895 C 427.625 480.277, 426.500 481.245, 426.500 482.045 C 426.500 484.245, 431.659 484.406, 436.895 482.370 L 441.500 480.578 438.500 479.907 C 434.616 479.039, 432.089 479.035, 429 479.895 M 748 501.923 C 742.169 502.441, 741.725 502.629, 743.684 503.750 C 747.879 506.150, 765.763 504.810, 767.523 501.963 C 768.157 500.937, 759.303 500.919, 748 501.923 M 814.116 532.250 C 814.050 533.251, 813.200 534, 812.132 534 C 810.354 534, 810.277 535.129, 810.523 557.516 C 810.708 574.340, 811.132 581.454, 812.013 582.516 C 813.728 584.582, 817.632 584.368, 819.917 582.083 C 820.971 581.029, 822.056 580.390, 822.329 580.663 C 822.602 580.935, 822.401 579.435, 821.882 577.329 C 820.816 573.002, 820.696 553.711, 821.656 541.123 L 822.296 532.747 818.682 533.169 C 816.019 533.479, 814.958 533.184, 814.650 532.045 C 814.319 530.821, 814.208 530.863, 814.116 532.250 M 159.290 535 C 159 536.107, 157.926 537, 156.883 537 C 155.092 537, 155 538.152, 155 560.500 L 155 584 171 584 L 187 584 187 579 L 187 574 176.500 574 L 166 574 166 569.500 C 166 565.718, 166.309 565, 167.934 565 C 169.300 565, 169.960 565.807, 170.184 567.750 L 170.500 570.500 180.250 570.786 L 190 571.072 190 577.536 L 190 584 194.971 584 L 199.942 584 200.221 570.885 L 200.500 557.770 209 570.883 L 217.500 583.996 222.186 583.998 L 226.873 584 226.963 560.500 L 227.054 537 224.110 537 C 222.491 537, 220.940 536.438, 220.662 535.750 C 220.259 534.750, 220.142 534.750, 220.079 535.750 C 220.036 536.438, 219.100 537, 218 537 C 216.192 537, 215.992 537.695, 215.915 544.250 C 215.868 548.237, 215.900 553.862, 215.987 556.750 C 216.074 559.638, 215.933 562, 215.674 562 C 215.415 562, 211.547 556.375, 207.079 549.500 C 201.199 540.454, 198.408 537, 196.977 537 C 195.833 537, 195 536.327, 195 535.403 C 195 534.111, 195.935 533.873, 199.906 534.153 C 202.604 534.344, 204.603 534.163, 204.347 533.750 C 204.091 533.337, 201.841 533, 199.347 533 C 195.654 533, 194.716 533.371, 194.290 535 C 194 536.107, 192.926 537, 191.883 537 C 190.212 537, 190 537.816, 190.002 544.250 L 190.004 551.500 180.502 551.181 C 171.889 550.893, 171 550.682, 171 548.931 C 171 547.195, 171.755 547, 178.500 547 L 186 547 186 542 L 186 537 173 537 C 162.211 537, 160 536.749, 160 535.525 C 160 534.301, 162.674 533.999, 175.750 533.748 L 191.500 533.445 175.656 533.223 C 160.557 533.010, 159.788 533.094, 159.290 535 M 225.903 533.712 L 231.306 534.115 230.751 549.308 C 230.446 557.663, 230.533 568.325, 230.943 573 C 231.354 577.675, 231.765 579.700, 231.856 577.500 L 232.022 573.500 234.605 576.778 C 238.881 582.204, 244.270 584.389, 253.500 584.439 C 259.693 584.473, 262.580 583.986, 266.283 582.283 L 271.066 580.083 270.783 568.792 L 270.500 557.500 261.500 557.500 L 252.500 557.500 252.195 562.250 L 251.890 567 255.945 567 C 259.285 567, 260 567.341, 260 568.930 C 260 570.137, 259.157 571.023, 257.750 571.294 L 255.500 571.728 257.750 571.864 C 260.584 572.035, 260.676 573.651, 257.901 574.531 C 254.409 575.640, 247.432 574.089, 245.203 571.709 C 240.930 567.148, 239.738 558.955, 242.415 552.548 C 243.586 549.746, 248 545.709, 248 547.440 C 248 547.721, 249.204 547.493, 250.675 546.933 C 252.518 546.233, 255.656 546.266, 260.761 547.039 C 264.836 547.657, 268.410 547.923, 268.703 547.631 C 268.995 547.338, 269.459 545.111, 269.732 542.682 L 270.230 538.266 266.365 537.469 C 261.073 536.378, 243.970 536.142, 244.605 537.169 C 245.058 537.904, 243.458 538.394, 242.710 537.750 C 241.968 537.112, 234.018 544.332, 233.304 546.291 C 232.727 547.876, 232.359 546.380, 232 541 L 231.500 533.500 226 533.405 L 220.500 533.309 225.903 533.712 M 309.290 535 C 309 536.107, 307.926 537, 306.883 537 C 305.115 537, 305 538.006, 305 553.458 L 305 569.916 297.250 570.257 L 289.500 570.598 297.250 570.799 L 305 571 305 577.500 L 305 584 310.500 584 L 316 584 316 560.500 L 316 537 313 537 C 311.048 537, 310 536.494, 310 535.552 C 310 534.519, 311.503 533.999, 315.250 533.737 L 320.500 533.370 315.156 533.185 C 310.569 533.026, 309.739 533.283, 309.290 535 M 384.290 535 C 384 536.107, 382.926 537, 381.883 537 C 380.220 537, 380 537.810, 380 543.950 L 380 550.900 374.250 551.261 L 368.500 551.622 374.250 551.811 C 378.610 551.954, 380 552.363, 380 553.500 C 380 554.708, 378.444 555, 372 555 L 364 555 364 546.109 L 364 537.219 360.577 536.819 C 352.877 535.920, 352.020 538.058, 353.283 555 C 353.713 560.775, 353.784 569.663, 353.440 574.750 L 352.813 584 358.407 584 L 364 584 364 574.500 L 364 565 372 565 L 380 565 380 574.500 L 380 584 385 584 L 390 584 390 560.500 L 390 537 387.500 537 C 385.985 537, 385 536.430, 385 535.552 C 385 534.519, 386.503 533.999, 390.250 533.737 L 395.500 533.370 390.156 533.185 C 385.569 533.026, 384.739 533.283, 384.290 535 M 418.750 533.745 C 423.837 533.927, 432.162 533.927, 437.250 533.745 C 442.337 533.564, 438.175 533.415, 428 533.415 C 417.825 533.415, 413.662 533.564, 418.750 533.745 M 519.250 533.742 C 534.989 533.996, 538 534.281, 538 535.522 C 538 536.335, 537.100 537, 536 537 C 534.057 537, 534 537.667, 534 560.500 L 534 584 539.500 584 L 545 584 545 574.500 L 545 565 553 565 L 561 565 561 574.500 L 561 584 566 584 L 571 584 571 560.500 L 571 537 566 537 L 561 537 561 543.950 L 561 550.900 555.250 551.261 L 549.500 551.622 555.250 551.811 C 559.610 551.954, 561 552.363, 561 553.500 C 561 554.708, 559.444 555, 553 555 L 545 555 545 546 L 545 537 542 537 C 540.048 537, 539 536.494, 539 535.552 C 539 534.516, 540.492 534.007, 544.250 533.762 C 547.138 533.574, 538.475 533.425, 525 533.430 C 505.389 533.439, 504.242 533.501, 519.250 533.742 M 597.094 533.736 L 612.189 534.053 611.845 538.978 C 611.655 541.687, 611.866 543.536, 612.314 543.088 C 612.762 542.639, 612.987 540.298, 612.814 537.886 L 612.500 533.500 597.249 533.460 L 581.998 533.419 597.094 533.736 M 629.290 535 C 629 536.107, 627.926 537, 626.883 537 C 625.092 537, 625 538.152, 625 560.500 L 625 584 630.500 584 L 636 584 636 575.500 L 636 567 640.040 567 C 644.261 567, 652 563.713, 652 561.921 C 652 561.349, 652.563 561.206, 653.250 561.601 C 653.938 561.997, 654.201 561.987, 653.835 561.579 C 653.469 561.171, 653.807 559.313, 654.585 557.451 C 656.416 553.070, 656.372 549.969, 654.410 545.066 C 652.191 539.520, 646.809 537, 637.184 537 C 631.547 537, 630 536.685, 630 535.538 C 630 534.383, 631.950 534.005, 639.250 533.745 L 648.500 533.415 639.156 533.208 C 630.562 533.017, 629.771 533.160, 629.290 535 M 709.290 535 C 709 536.107, 707.926 537, 706.883 537 C 705.092 537, 705 538.152, 705 560.500 L 705 584 710.436 584 L 715.873 584 715.963 560.500 L 716.054 537 713.027 537 C 711.003 537, 710 536.503, 710 535.500 C 710 534.367, 711.222 534, 715 534 L 720 534 720.014 556.750 C 720.021 569.263, 720.299 580.513, 720.630 581.750 C 721.151 583.694, 721.898 584, 726.117 584 L 731 584 731 570.270 L 731 556.539 739.958 570.270 L 748.915 584 753.458 584 L 758 584 758 560.500 L 758 537 755.500 537 C 753.944 537, 753 536.433, 753 535.500 C 753 534.367, 754.222 534, 758 534 C 761.778 534, 763 534.367, 763 535.500 C 763 536.333, 762.111 537, 761 537 C 759.267 537, 759 537.667, 759 542 L 759 547 765.500 547 L 772 547 772 565.500 L 772 584 777.500 584 L 783 584 783 565.500 L 783 547 789.500 547 L 796 547 796 542 L 796 537 780 537 C 766.551 537, 764 536.764, 764 535.522 C 764 534.281, 767.011 533.996, 782.750 533.742 C 800.544 533.456, 800.258 533.432, 777.143 533.270 C 753.760 533.107, 752.766 533.178, 752.277 535.050 C 751.996 536.122, 750.919 537, 749.883 537 C 748.208 537, 747.991 537.857, 747.915 544.750 C 747.868 549.013, 747.900 554.862, 747.987 557.750 C 748.074 560.638, 747.948 563, 747.708 563 C 747.467 563, 743.497 557.150, 738.885 550 C 732.222 539.670, 730.038 537, 728.250 537 C 726.955 537, 726 536.387, 726 535.555 C 726 534.550, 727.447 533.995, 730.750 533.735 L 735.500 533.360 730.656 533.180 C 726.571 533.028, 725.731 533.313, 725.290 535 C 725.002 536.100, 723.972 537, 723 537 C 722.028 537, 720.998 536.100, 720.710 535 C 720.272 533.324, 719.346 533, 715 533 C 710.654 533, 709.728 533.324, 709.290 535 M 500.079 535.750 C 500.036 536.438, 499.100 537, 498 537 C 496.267 537, 496 537.667, 496 542 L 496 547 502.500 547 L 509 547 509 565.500 L 509 584 514.500 584 L 520 584 520 565.500 L 520 547 526.500 547 L 533 547 533 542 L 533 537 517.083 537 C 505.286 537, 501.036 536.677, 500.662 535.750 C 500.259 534.750, 500.142 534.750, 500.079 535.750 M 274.669 539.423 C 274.400 541.115, 274.313 551.725, 274.476 563 L 274.771 583.500 289.386 583.777 L 304 584.053 304 579.027 L 304 574 294.500 574 L 285 574 285 555.500 L 285 537 282.250 536.917 C 280.738 536.871, 278.523 536.724, 277.329 536.590 C 275.603 536.396, 275.057 536.977, 274.669 539.423 M 323.512 539.561 C 319.972 542.795, 318.291 548.038, 319.390 552.416 C 320.402 556.448, 324.931 560.936, 331.163 564.082 C 342.916 570.015, 343.638 574, 332.959 574 C 329.772 574, 326.480 573.738, 325.645 573.417 C 324.047 572.804, 324.504 570.082, 326.427 568.765 C 327.130 568.284, 327.037 568.025, 326.156 568.015 C 325.417 568.007, 324.577 568.900, 324.290 570 C 324.002 571.100, 322.979 572, 322.016 572 C 320.715 572, 320.013 573.277, 319.282 576.972 L 318.299 581.944 321.899 583.206 C 323.880 583.900, 328.875 584.460, 333 584.450 C 345.107 584.422, 351 579.798, 351 570.327 C 351 565.166, 347.162 560.884, 338.288 556.143 C 333.802 553.746, 329.862 551.083, 329.533 550.225 C 328.226 546.818, 331.848 546.009, 342.250 547.384 C 346.720 547.975, 348.016 547.850, 348.071 546.822 C 348.110 546.095, 348.345 543.846, 348.592 541.825 L 349.041 538.150 343.609 537.023 C 340.621 536.402, 335.631 536.031, 332.519 536.197 C 327.838 536.448, 326.284 537.028, 323.512 539.561 M 406.250 536.820 C 404.264 537.102, 404 537.718, 404 542.070 L 404 547 411 547 L 418 547 418 565.500 L 418 584 423 584 L 428 584 428 565.500 L 428 547 434.500 547 L 441 547 441 542.047 L 441 537.093 424.750 536.797 C 415.813 536.633, 407.488 536.644, 406.250 536.820 M 453.663 537.250 C 453.913 537.663, 453.227 538, 452.138 538 C 449.232 538, 442.481 545.173, 440.497 550.369 C 439.255 553.620, 438.880 556.944, 439.149 562.286 C 439.641 572.024, 443.201 578.198, 450.484 581.945 C 457.247 585.425, 466.642 585.453, 472.764 582.013 C 475.094 580.703, 477 579.238, 477 578.757 C 477 578.276, 477.520 578.203, 478.155 578.595 C 478.844 579.021, 479.039 578.871, 478.638 578.224 C 478.269 577.627, 478.472 576.827, 479.088 576.446 C 483.542 573.693, 485.624 556.830, 482.449 549.218 C 480.067 543.506, 475.212 539.118, 469.411 537.431 C 464.320 535.951, 452.795 535.819, 453.663 537.250 M 578.232 536.822 L 575.963 537.144 576.232 560.322 L 576.500 583.500 592.250 583.775 L 608 584.051 608 579.025 L 608 574 597.500 574 L 587 574 587 569.500 L 587 565 596.500 565 L 606 565 606 560 L 606 555 596.500 555 L 587 555 587 551 L 587 547 597.369 547 L 607.739 547 607.850 542.052 L 607.962 537.105 594.231 536.802 C 586.679 536.636, 579.479 536.645, 578.232 536.822 M 669.293 537.678 C 669.014 538.405, 668.272 539.013, 667.643 539.029 C 665.500 539.084, 660.505 544.524, 658.500 548.985 C 655.812 554.965, 655.753 567.010, 658.387 572 C 660.993 576.939, 663.878 579.871, 668.500 582.278 C 676.218 586.297, 690.144 584.351, 694.930 578.584 C 695.643 577.725, 696.595 577.249, 697.044 577.527 C 697.494 577.805, 698.187 577.506, 698.585 576.862 C 699.037 576.131, 698.876 575.959, 698.155 576.405 C 696.492 577.432, 696.712 576.602, 699.237 572.322 C 701.049 569.251, 701.477 567.003, 701.487 560.491 C 701.504 549.977, 698.638 543.907, 691.604 539.559 C 687.347 536.927, 685.877 536.586, 678.309 536.478 C 672.088 536.389, 669.664 536.712, 669.293 537.678 M 676.500 546.804 C 670.108 547.563, 666.262 554.894, 667.594 563.778 C 668.630 570.689, 672.316 574, 678.971 574 C 683.229 574, 684.510 573.552, 686.549 571.353 C 691.440 566.075, 691.978 555.366, 687.604 550.368 C 685.228 547.654, 680.940 546.277, 676.500 546.804 M 166 551 L 166 555 175.500 555 L 185 555 185 560 L 185 565 178 565 C 171.200 565, 171 565.071, 171 567.500 C 171 569.991, 171.033 570, 180.500 570 L 190 570 190 565.441 C 190 562.934, 189.662 561.091, 189.250 561.347 C 188.838 561.603, 188.655 559.622, 188.844 556.945 L 189.188 552.078 179.844 551.789 C 171.017 551.516, 170.482 551.376, 170.180 549.250 C 169.975 547.804, 169.171 547, 167.930 547 C 166.345 547, 166 547.715, 166 551 M 454.042 548.683 C 449.012 552.206, 448.757 566.050, 453.629 571.134 C 455.951 573.558, 457.164 574, 461.496 574 C 464.451 574, 467.439 573.379, 468.559 572.532 C 469.626 571.724, 470.076 571.049, 469.559 571.032 C 469.041 571.014, 469.449 570.392, 470.464 569.650 C 471.748 568.711, 472.451 566.612, 472.770 562.762 C 473.323 556.094, 471.652 550.473, 468.504 548.411 C 465.710 546.580, 456.805 546.748, 454.042 548.683 M 636 552 C 636 556.990, 636.007 557, 639.300 557 C 643.445 557, 645 555.475, 645 551.407 C 645 547.938, 643.706 547, 638.918 547 C 636.083 547, 636 547.142, 636 552 M 596.250 551.735 C 598.862 551.941, 603.138 551.941, 605.750 551.735 C 608.362 551.529, 606.225 551.360, 601 551.360 C 595.775 551.360, 593.638 551.529, 596.250 551.735 M 596.750 570.737 C 599.638 570.939, 604.362 570.939, 607.250 570.737 C 610.138 570.535, 607.775 570.370, 602 570.370 C 596.225 570.370, 593.862 570.535, 596.750 570.737" stroke="none" fill="#6132b4" fill-rule="evenodd"/></svg>